<svg t="1684331817211" class="icon" viewBox="0 0 2441 1024" version="1.1" xmlns="http://www.w3.org/2000/svg" p-id="1756" width="32" height="32"><path d="M0 748.307692h275.692308v78.769231H0v-78.769231z" fill="#007AFF" p-id="1757"></path><path d="M0 590.769231h78.769231v236.307692H0v-236.307692z" fill="#007AFF" p-id="1758"></path><path d="M334.769231 35.84C302.158769 35.84 275.692308 59.864615 275.692308 89.481846V196.923077H236.307692V89.521231C236.307692 40.093538 280.418462 0 334.769231 0h984.615384C1373.735385 0 1417.846154 40.093538 1417.846154 89.521231V196.923077h-39.384616V89.521231c0-29.656615-26.466462-53.720615-59.076923-53.720616h-236.307692V196.923077h-39.384615V35.84h-433.23077V196.923077h-39.384615V35.84h-236.307692z" fill="#00C0FF" p-id="1759"></path><path d="M157.538462 472.615385h1575.384615v236.307692H157.538462v-236.307692z" fill="#007AFF" p-id="1760"></path><path d="M196.923077 512h1496.615385v157.538462H196.923077v-157.538462z m-39.384615-39.384615v236.307692h1575.384615v-236.307692H157.538462z" fill="#006EE6" p-id="1761"></path><path d="M196.923077 708.923077h1851.076923v118.153846H196.923077v-118.153846z" fill="#585757" p-id="1762"></path><path d="M1950.562462 560.836923h107.835076v377.619692h-107.835076v-377.659077z" fill="#585757" p-id="1763"></path><path d="M122.840615 690.609231h-36.036923a1.457231 1.457231 0 0 1-1.417846-1.457231v-62.503385c0-0.787692 0.630154-1.417846 1.417846-1.417846h36.036923c0.787692 0 1.417846 0.669538 1.417847 1.457231v62.464c0 0.787692-0.630154 1.457231-1.417847 1.457231z" fill="#F05722" p-id="1764"></path><path d="M196.923077 697.147077H100.903385v-78.375385H196.923077v78.375385z" fill="#373737" p-id="1765"></path><path d="M2398.916923 759.256615h-101.218461a4.056615 4.056615 0 0 1-4.056616-4.01723v-328.900923c0-2.205538 1.811692-4.017231 4.017231-4.017231h101.218461c2.244923 0 4.056615 1.772308 4.056616 4.017231v328.900923a4.056615 4.056615 0 0 1-4.056616 4.01723z" fill="#B3B1B1" p-id="1766"></path><path d="M1496.615385 650.161231H193.614769V630.153846H1496.615385v20.007385z" fill="#2626BD" p-id="1767"></path><path d="M2363.076923 315.076923v402.313846h-73.649231s-30.326154-1.575385-30.326154 30.326154v77.902769h-34.697846c-0.433231-125.046154-102.163692-226.185846-227.643077-226.185846-125.479385 0-227.209846 101.139692-227.643077 226.185846h-44.701538V39.384615h468.558769a78.769231 78.769231 0 0 1 72.428308 47.734154L2363.076923 315.076923z" fill="#C7C7CC" p-id="1768"></path><path d="M1911.847385 127.448615h312.123077l85.464615 252.731077H1911.847385V127.448615z" fill="#B7E2EC" p-id="1769"></path><path d="M2182.498462 845.745231v-35.997539h-4.647385a184.044308 184.044308 0 0 0-7.876923-38.124307l4.292923-1.811693-14.257231-33.083077-4.253538 1.851077a185.028923 185.028923 0 0 0-19.140923-28.199384l3.268923-3.268923-25.521231-25.442462-3.268923 3.268923a185.895385 185.895385 0 0 0-28.750769-19.416615l1.772307-4.253539-33.20123-14.099692-1.772308 4.214154a184.201846 184.201846 0 0 0-37.691077-7.601231v-4.647385h-36.076308v4.647385c-11.776 1.142154-23.236923 3.426462-34.225231 6.695385l-1.772307-4.371693-33.476923 13.469539 1.772307 4.332308c-11.342769 5.907692-22.094769 12.918154-31.901538 20.992l-3.308308-3.268924-25.481846 25.442462 3.268923 3.268923c-7.364923 8.900923-13.902769 18.510769-19.495384 28.750769l-4.253539-1.811692-14.139077 33.083077 4.253539 1.811692a183.020308 183.020308 0 0 0-7.640616 37.572923h-4.647384v35.997539h4.647384c1.260308 13.154462 3.938462 25.915077 7.837539 38.124307l-4.253539 1.811693 14.217846 33.083077 4.292923-1.851077a185.107692 185.107692 0 0 0 19.140924 28.199384l-3.268924 3.268923 25.481847 25.442462 3.268923-3.268923c8.940308 7.325538 18.589538 13.824 28.790154 19.416615l-1.811693 4.253539 33.201231 14.099692 1.811692-4.214154c12.051692 3.780923 24.654769 6.340923 37.651693 7.601231v4.647385h36.076307v-4.647385c11.815385-1.142154 23.236923-3.426462 34.264616-6.695385l1.732923 4.371693 33.476923-13.469539-1.772308-4.332307c11.382154-5.907692 22.134154-12.918154 31.940923-21.031385l3.268923 3.308308 25.521231-25.442462-3.268923-3.268923c7.325538-8.900923 13.863385-18.510769 19.456-28.750769l4.253538 1.811692 14.178462-33.083077-4.253538-1.811692a183.138462 183.138462 0 0 0 7.640615-37.572923h4.647385z" fill="#373737" p-id="1770"></path><path d="M1996.681846 996.824615a168.644923 168.644923 0 0 0 168.644923-168.172307 168.644923 168.644923 0 0 0-168.644923-168.251077 168.644923 168.644923 0 0 0-168.644923 168.211692 168.644923 168.644923 0 0 0 168.644923 168.211692z m0-317.833846a150.055385 150.055385 0 0 1 150.055385 149.661539 150.055385 150.055385 0 0 1-150.055385 149.661538 150.055385 150.055385 0 0 1-150.055384-149.661538 150.055385 150.055385 0 0 1 150.055384-149.661539z" fill="#EDECED" opacity=".2" p-id="1771"></path><path d="M1996.681846 939.638154a111.182769 111.182769 0 0 1-111.340308-111.064616 111.182769 111.182769 0 0 1 111.340308-111.02523 111.182769 111.182769 0 0 1 111.340308 111.064615 111.182769 111.182769 0 0 1-111.340308 111.064615z" fill="#EDECED" p-id="1772"></path><path d="M2083.052308 828.612923a86.212923 86.212923 0 0 1-86.370462 86.094769 86.252308 86.252308 0 0 1-86.331077-86.094769 86.252308 86.252308 0 0 1 86.331077-86.134154 86.252308 86.252308 0 0 1 86.331077 86.134154z" fill="#B3B1B1" p-id="1773"></path><path d="M2024.684308 828.612923a27.963077 27.963077 0 1 1-55.926154-0.078769 27.963077 27.963077 0 0 1 55.926154 0.078769z" fill="#706F70" p-id="1774"></path><path d="M787.692308 845.784615v-35.997538h-4.647385a184.044308 184.044308 0 0 0-7.876923-38.124308l4.292923-1.851077-14.257231-33.043692-4.253538 1.811692a185.147077 185.147077 0 0 0-19.140923-28.16l3.268923-3.268923-25.521231-25.442461-3.268923 3.268923a185.895385 185.895385 0 0 0-28.790154-19.416616l1.811692-4.253538-33.20123-14.099692-1.811693 4.214153a184.477538 184.477538 0 0 0-37.651692-7.640615v-4.608h-36.076308v4.608c-11.815385 1.181538-23.236923 3.465846-34.264615 6.695385l-1.732923-4.332308-33.476923 13.430154 1.772308 4.332308c-11.382154 5.986462-22.134154 12.957538-31.940924 21.031384l-3.268923-3.268923-25.52123 25.442462 3.268923 3.268923c-7.325538 8.900923-13.863385 18.510769-19.456 28.750769l-4.253539-1.851077-14.178461 33.083077 4.253538 1.851077a183.020308 183.020308 0 0 0-7.640615 37.572923h-4.647385v35.958154h4.647385c1.299692 13.193846 3.938462 25.915077 7.876923 38.163692l-4.253539 1.811692 14.217847 33.083077 4.292923-1.851077c5.513846 10.003692 11.933538 19.416615 19.140923 28.199385l-3.308308 3.229538 25.521231 25.442462 3.268923-3.229538c8.940308 7.325538 18.589538 13.824 28.790154 19.416615l-1.811693 4.214154 33.201231 14.139077 1.811692-4.253539c12.051692 3.820308 24.654769 6.380308 37.651693 7.640616v4.647384h36.076307v-4.647384c11.815385-1.142154 23.236923-3.465846 34.264616-6.695385l1.732923 4.332308 33.476923-13.430154-1.772308-4.332308c11.382154-5.947077 22.134154-12.957538 31.940923-21.031384l3.308308 3.268923 25.481846-25.442462-3.268923-3.229538c7.364923-8.900923 13.902769-18.510769 19.495385-28.75077l4.253538 1.811693 14.139077-33.083077-4.253538-1.811693c3.820308-12.051692 6.380308-24.615385 7.640615-37.572923H787.692308z" fill="#373737" p-id="1775"></path><path d="M601.875692 996.864a168.644923 168.644923 0 0 0 168.684308-168.211692 168.644923 168.644923 0 0 0-168.684308-168.251077A168.644923 168.644923 0 0 0 433.230769 828.652308a168.644923 168.644923 0 0 0 168.644923 168.211692z m0-317.873231a150.055385 150.055385 0 0 1 150.055385 149.661539 150.055385 150.055385 0 0 1-150.055385 149.661538 150.055385 150.055385 0 0 1-150.055384-149.661538 150.055385 150.055385 0 0 1 150.055384-149.661539z" fill="#EDECED" opacity=".2" p-id="1776"></path><path d="M713.255385 828.652308a111.182769 111.182769 0 0 1-111.340308 111.064615 111.182769 111.182769 0 0 1-111.340308-111.064615 111.182769 111.182769 0 0 1 111.340308-111.064616 111.182769 111.182769 0 0 1 111.340308 111.064616z" fill="#EDECED" p-id="1777"></path><path d="M688.246154 828.652308a86.212923 86.212923 0 0 1-86.331077 86.094769 86.252308 86.252308 0 0 1-86.331077-86.094769 86.252308 86.252308 0 0 1 86.331077-86.134154 86.252308 86.252308 0 0 1 86.331077 86.094769z" fill="#B3B1B1" p-id="1778"></path><path d="M629.917538 828.652308a27.963077 27.963077 0 1 1-55.965538-0.07877 27.963077 27.963077 0 0 1 55.926154 0.07877z" fill="#706F70" p-id="1779"></path><path d="M1914.092308 238.828308V127.448615L2167.335385 380.061538H2048l-133.907692-141.193846zM1976.280615 127.448615h39.975385l250.801231 252.573539h-35.367385L1976.32 127.448615z" fill="#FFFFFF" p-id="1780"></path><path d="M2202.269538 675.524923h106.614154c5.12 0 9.294769-4.135385 9.29477-9.255385V380.219077a9.294769 9.294769 0 0 0-18.589539 0v276.755692h-92.16c-16.856615-25.757538-106.102154-145.092923-284.593231-99.485538l-1.142154-177.309539a9.294769 9.294769 0 0 0-18.589538 0.07877l1.181538 189.44c0 2.914462 1.417846 5.671385 3.741539 7.404307a9.452308 9.452308 0 0 0 8.192 1.457231c192.275692-55.847385 274.550154 86.173538 277.976615 92.238769 1.575385 2.914462 4.726154 4.726154 8.073846 4.726154z" fill="#373737" opacity=".4" p-id="1781"></path><path d="M2300.691692 383.291077l17.48677-6.262154L2225.348923 118.153846h-322.835692l1.142154 262.025846 18.589538-0.039384-1.063385-243.396923h291.052308l88.457846 246.547692z" fill="#231F20" p-id="1782"></path><path d="M1911.847385 370.924308H2309.513846v18.589538H1911.847385v-18.589538z" fill="#231F20" p-id="1783"></path><path d="M2047.330462 433.230769h-77.430154c-0.393846 0-0.669538-0.630154-0.669539-1.457231v-36.470153c0-0.787692 0.315077-1.457231 0.669539-1.457231h77.430154c0.393846 0 0.669538 0.630154 0.669538 1.457231v36.470153c0 0.787692-0.315077 1.457231-0.669538 1.457231z" fill="#0C132C" fill-opacity=".8" p-id="1784"></path><path d="M1614.769231 472.615385v39.384615H78.769231v-39.384615H1614.769231z" fill="#00C0FF" p-id="1785"></path><path d="M1496.615385 512v39.384615h-118.153847v-39.384615h118.153847z" fill="#FFFFFF" p-id="1786"></path><path d="M1378.461538 512v39.384615h-118.153846v-39.384615h118.153846z" fill="#FA5151" p-id="1787"></path><path d="M945.230769 827.076923h669.538462v-39.384615H945.230769v39.384615z m695.296-39.384615h-0.157538 0.157538z m0 39.384615h-0.157538a0.787692 0.787692 0 0 0 0.157538 0zM919.630769 827.076923h-0.157538 0.157538z m0-39.384615h-0.157538 0.157538z m0.433231 78.76923h719.872c7.876923 0 14.217846-1.969231 14.217846-4.332307v-109.489231c0-2.363077-6.340923-4.332308-14.217846-4.332308H920.064c-7.876923 0-14.217846 1.969231-14.217846 4.332308v109.489231c0 2.363077 6.380308 4.332308 14.217846 4.332307z" fill="#FFFFFF" p-id="1788"></path><path d="M1614.769231 748.307692v39.384616h-118.153846v-39.384616h118.153846zM1654.153846 748.307692v118.153846h-39.384615v-118.153846h39.384615zM945.230769 748.307692v118.153846h-39.384615v-118.153846h39.384615zM1614.769231 827.076923v39.384615h-118.153846v-39.384615h118.153846zM1378.461538 827.076923v39.384615h-196.923076v-39.384615h196.923076zM1378.461538 748.307692v39.384616h-196.923076v-39.384616h196.923076z" fill="#FA5151" p-id="1789"></path><path d="M1063.384615 748.307692v39.384616h-157.538461v-39.384616h157.538461zM1063.384615 827.076923v39.384615h-157.538461v-39.384615h157.538461z" fill="#FA5151" p-id="1790"></path><path d="M1260.307692 512v39.384615h-118.153846v-39.384615h118.153846z" fill="#FFFFFF" p-id="1791"></path><path d="M1142.153846 512v39.384615h-118.153846v-39.384615h118.153846z" fill="#FA5151" p-id="1792"></path><path d="M1024 512v39.384615h-118.153846v-39.384615h118.153846z" fill="#FFFFFF" p-id="1793"></path><path d="M905.846154 512v39.384615h-118.153846v-39.384615h118.153846z" fill="#FA5151" p-id="1794"></path><path d="M787.692308 512v39.384615h-118.153846v-39.384615h118.153846z" fill="#FFFFFF" p-id="1795"></path><path d="M669.538462 512v39.384615h-118.153847v-39.384615h118.153847z" fill="#FA5151" p-id="1796"></path><path d="M551.384615 512v39.384615h-118.153846v-39.384615h118.153846z" fill="#FFFFFF" p-id="1797"></path><path d="M433.230769 512v39.384615H315.076923v-39.384615h118.153846z" fill="#FA5151" p-id="1798"></path><path d="M315.076923 512v39.384615H196.923077v-39.384615h118.153846z" fill="#FFFFFF" p-id="1799"></path><path d="M196.923077 512v39.384615H78.769231v-39.384615h118.153846z" fill="#FA5151" p-id="1800"></path><path d="M1483.894154 78.769231a78.769231 78.769231 0 0 1 78.375384 70.616615l2.914462 28.435692a945.348923 945.348923 0 0 1 0 195.741539l-2.953846 28.435692A78.769231 78.769231 0 0 1 1483.854769 472.615385H183.886769a78.769231 78.769231 0 0 1-77.115077-62.700308l-6.222769-29.853539a512 512 0 0 1 0-208.738461l6.222769-29.853539A78.769231 78.769231 0 0 1 183.847385 78.769231h1300.046769z" fill="#E4EFFF" p-id="1801"></path><path d="M1483.894154 433.230769H183.808a39.384615 39.384615 0 0 1-38.518154-31.350154l-6.222769-29.853538a472.615385 472.615385 0 0 1 0-192.669539l6.222769-29.853538A39.384615 39.384615 0 0 1 183.847385 118.153846h1300.046769a39.384615 39.384615 0 0 1 39.187692 35.288616l2.953846 28.435692c6.459077 62.385231 6.459077 125.243077 0 187.628308l-2.953846 28.435692a39.384615 39.384615 0 0 1-39.187692 35.288615z m78.375384-283.844923A78.769231 78.769231 0 0 0 1483.854769 78.769231H183.808A78.769231 78.769231 0 0 0 106.732308 141.469538l-6.22277 29.853539a512 512 0 0 0 0 208.738461l6.22277 29.853539A78.769231 78.769231 0 0 0 183.847385 472.615385h1300.046769a78.769231 78.769231 0 0 0 78.375384-70.616616l2.914462-28.435692a945.348923 945.348923 0 0 0 0-195.741539l-2.953846-28.435692z" fill="#AFBDE2" p-id="1802"></path><path d="M1686.173538 553.747692h-34.264615V165.927385h34.264615v387.741538z" fill="#C7C7CC" p-id="1803"></path><path d="M1734.104615 642.875077V333.902769a33.634462 33.634462 0 0 0-33.673846-33.595077H1643.52a33.634462 33.634462 0 0 0-33.673846 33.595077v308.972308h124.337231z" fill="#E7E7E7" p-id="1804"></path><path d="M1709.410462 187.943385h-80.817231a3.229538 3.229538 0 0 1-3.229539-3.229539V71.601231c0-1.772308 1.457231-3.229538 3.229539-3.229539h80.817231c1.772308 0 3.229538 1.457231 3.229538 3.229539V184.713846a3.229538 3.229538 0 0 1-3.229538 3.229539z" fill="#C7C7CC" p-id="1805"></path><path d="M2413.489231 780.209231h-63.015385v-147.928616h63.015385v147.889231z" fill="#E5E5EA" p-id="1806"></path><path d="M1604.056615 676.864H1446.203077a5.789538 5.789538 0 0 1-5.750154-5.789538v-144.935385c0-3.150769 2.599385-5.750154 5.750154-5.750154h157.853538c3.150769 0 5.789538 2.599385 5.789539 5.750154v144.935385c0 3.150769-2.599385 5.789538-5.789539 5.789538z" fill="#B3B1B1" p-id="1807"></path><path d="M1440.413538 555.401846h169.432616v18.550154h-169.432616v-18.550154zM1464.004923 585.767385h18.628923v69.947077h-18.628923v-69.947077zM1515.835077 585.767385h18.628923v69.947077h-18.628923v-69.947077zM1541.750154 585.767385h18.628923v69.947077h-18.628923v-69.947077zM1490.116923 585.767385h18.589539v69.947077h-18.589539v-69.947077zM1567.665231 585.767385h18.589538v69.947077h-18.589538v-69.947077z" fill="#706F70" p-id="1808"></path></svg>